{"title":"The Twilight Saga, Breaking Dawn Part 2 2012 DVD9rip English Kla","uid":8214250,"size":1678425787,"categoryP":"video","categoryS":"movies","magnet":"?xt=urn:btih:003a1ff45f1368d08e62d5c896dec80c3aac63eb&amp;dn=The+Twilight+Saga%2C+Breaking+Dawn+Part+2+2012+DVD9rip+English+Kla&amp;tr=udp%3A%2F%2Ftracker.openbittorrent.com%3A80&amp;tr=udp%3A%2F%2Fopen.demonii.com%3A1337&amp;tr=udp%3A%2F%2Ftracker.coppersurfer.tk%3A6969&amp;tr=udp%3A%2F%2Fexodus.desync.com%3A6969","seeders":1,"leechers":0,"uploader":"Klambake","files":-1,"time":1362309050,"description":"With: Kristen Stewart, Robert Pattinson en Taylor Lautner\n\nNa de geboorte van Renesmee, geniet Bella (nu vampier) optimaal van haar nieuwe leven en capaciteiten. Echter, de vampier Irina ziet in Renesmee onterecht een 'onsterfelijk kind'. Ze gaat met haar beweringen naar de Volturi die uiteindelijk besluiten om haar te vernietigen. In een poging om te overleven verzamelen de Cullens verklaringen van andere vampiersclans om zo te bewijzen aan de Volturi dat hun kind niet onsterfelijk is.\n &lt;a href=&quot;\nhttp://www.imdb.com/title/tt1673434&quot; rel=&quot;nofollow&quot; target=&quot;_NEW&quot;&gt;\nhttp://www.imdb.com/title/tt1673434&lt;/a&gt;\t\n\n------------------------ Dutch Friends ------------------------\n---------------------------------------------------------------\n- Bezoek ook eens mijn vrienden op: &lt;a href=&quot; http://www.Film-Test.nl&quot; rel=&quot;nofollow&quot; target=&quot;_NEW&quot;&gt; http://www.Film-Test.nl&lt;/a&gt; --\n----- voor mijn Nederlandse Sync. ondertitels ---- en meer ----\n------- http://www.Film-Test.nl ---- Over Films en meer -------\n---------------------------------------------------------------\n\nGeneral:\n\nComplete name                    : The Twilight SagaBreaking Dawn Part 2.avi\nFormat                           : AVI\nFormat/Info                      : Audio Video Interleave\nFile size                        : 1.56 GiB\nDuration                         : 1h 50mn\nOverall bit rate                 : 2 026 Kbps\n\nVideo:\n\nFormat                           : MPEG-4 Visual\nFormat profile                   : Simple@L3\nFormat settings, BVOP            : No\nFormat settings, QPel            : No\nFormat settings, GMC             : No warppoints\nFormat settings, Matrix          : Default (H.263)\nCodec ID                         : XVID\nCodec ID/Hint                    : XviD\nDuration                         : 1h 50mn\nBit rate                         : 1 567 Kbps\nWidth                            : 720 pixels\nHeight                           : 304 pixels\nDisplay aspect ratio             : 2.35:1\nFrame rate                       : 25.000 fps\nColor space                      : YUV\nChroma subsampling               : 4:2:0\nBit depth                        : 8 bits\nScan type                        : Progressive\nCompression mode                 : Lossy\nBits/(Pixel*Frame)               : 0.286\nStream size                      : 1.21 GiB (77%)\nWriting library                  : XviD 1.1.2 (UTC 2006-11-01)\n\nAudio:\n\nFormat                           : AC-3\nFormat/Info                      : Audio Coding 3\nMode extension                   : CM (complete main)\nCodec ID                         : 2000\nDuration                         : 1h 50mn\nBit rate mode                    : Constant\nBit rate                         : 448 Kbps\nChannel(s)                       : 6 channels\nChannel positions                : Front: L C R, Side: L R, LFE\nSampling rate                    : 48.0 KHz\nBit depth                        : 16 bits\nCompression mode                 : Lossy\nStream size                      : 354 MiB (22%)\nAlignment                        : Aligned on interleaves\nInterleave, duration             : 32 ms (0.80 video frame)\nInterleave, preload duration     : 288 ms","torrent":{"xt":"urn:btih:003a1ff45f1368d08e62d5c896dec80c3aac63eb","amp;dn":"The+Twilight+Saga%2C+Breaking+Dawn+Part+2+2012+DVD9rip+English+Kla","amp;tr":["udp%3A%2F%2Ftracker.openbittorrent.com%3A80","udp%3A%2F%2Fopen.demonii.com%3A1337","udp%3A%2F%2Ftracker.coppersurfer.tk%3A6969","udp%3A%2F%2Fexodus.desync.com%3A6969"],"infoHash":"003a1ff45f1368d08e62d5c896dec80c3aac63eb","infoHashBuffer":{"type":"Buffer","data":[0,58,31,244,95,19,104,208,142,98,213,200,150,222,200,12,58,172,99,235]},"announce":[],"urlList":[]}}